<svg id="Layer_1" data-name="Layer 1" xmlns="http://www.w3.org/2000/svg" xmlns:xlink="http://www.w3.org/1999/xlink" viewBox="0 0 481.57 309.93"><defs><clipPath id="clip-path"><rect x="0.16" width="481.41" height="309.93" style="fill:none"/></clipPath><linearGradient id="linear-gradient" y1="8.9" x2="481.41" y2="8.9" gradientUnits="userSpaceOnUse"><stop offset="0" stop-color="#00ffa3"/><stop offset="0.96" stop-color="#aa91fb"/></linearGradient></defs><title>code</title><g style="clip-path:url(#clip-path)"><path d="M469.78,309.93H12A11.8,11.8,0,0,1,.16,298.17V16.33A8.66,8.66,0,0,1,8.8,7.71h464a8.77,8.77,0,0,1,8.78,8.77V298.17a11.78,11.78,0,0,1-11.79,11.76Z" style="fill:#f2f2f2"/><path d="M455,295.08H28.29C22,295.08,17,290.32,17,284.47V39a8.16,8.16,0,0,1,8.41-7.86H457.78a8.29,8.29,0,0,1,8.54,8v245.3C466.32,290.32,461.24,295.08,455,295.08Z" style="fill:#fff"/><path d="M481.41,17.8H0v-6A11.83,11.83,0,0,1,11.83,0H469.58a11.83,11.83,0,0,1,11.83,11.8Z" style="fill:url(#linear-gradient)"/><path d="M21.5,12a3.06,3.06,0,1,0-3.06-3.05A3.06,3.06,0,0,0,21.5,12Z" style="fill:#fff"/><path d="M33.12,12a3.06,3.06,0,1,0-3.06-3.05A3.06,3.06,0,0,0,33.12,12Z" style="fill:#fff"/><path d="M44.73,12a3.06,3.06,0,1,0-3.06-3.05A3.06,3.06,0,0,0,44.73,12Z" style="fill:#fff"/><path d="M231.51,84.84H148.06a4.68,4.68,0,1,1,0-9.36h83.45a4.68,4.68,0,1,1,0,9.36Z" style="fill:#ccc"/><path d="M335.21,84.84H251.76a4.68,4.68,0,1,1,0-9.36h83.45a4.68,4.68,0,1,1,0,9.36Z" style="fill:#ccc"/><path d="M335.21,102.59H190a4.69,4.69,0,1,1,0-9.37H335.21a4.74,4.74,0,0,1,3.32,1.37,4.69,4.69,0,0,1-3.32,8Z" style="fill:#ccc"/><path d="M231.51,66.85H148.06a4.68,4.68,0,0,1-4.68-4.68,4.69,4.69,0,0,1,4.68-4.69h83.45a4.63,4.63,0,0,1,1.8.36,4.59,4.59,0,0,1,2.54,2.53,4.66,4.66,0,0,1,0,3.59,4.59,4.59,0,0,1-2.54,2.53A4.63,4.63,0,0,1,231.51,66.85Z" style="fill:#ccc"/><path d="M277.44,67.1h-23.7a4.69,4.69,0,1,1,0-9.37h23.7a4.69,4.69,0,0,1,0,9.37Z" style="fill:#ccc"/><path d="M171.77,102.59H148.06a4.69,4.69,0,0,1-3.31-1.38,4.67,4.67,0,0,1,0-6.61,4.69,4.69,0,0,1,3.31-1.38h23.71a4.62,4.62,0,0,1,1.79.36,4.59,4.59,0,0,1,2.54,2.53,4.66,4.66,0,0,1,0,3.59,4.59,4.59,0,0,1-2.54,2.53A4.62,4.62,0,0,1,171.77,102.59Z" style="fill:#ccc"/><path d="M231.51,251H148.06a4.68,4.68,0,1,1,0-9.36h83.45a4.62,4.62,0,0,1,3.32,1.37,4.69,4.69,0,0,1,1.38,3.31,4.54,4.54,0,0,1-.36,1.79,4.74,4.74,0,0,1-2.54,2.54A4.81,4.81,0,0,1,231.51,251Z" style="fill:#ccc"/><path d="M335.21,251H251.76a4.68,4.68,0,1,1,0-9.36h83.45a4.81,4.81,0,0,1,1.8.35,4.9,4.9,0,0,1,1.52,1,4.73,4.73,0,0,1,1.37,3.31,4.54,4.54,0,0,1-.36,1.79,4.59,4.59,0,0,1-1,1.52,4.73,4.73,0,0,1-1.52,1A4.81,4.81,0,0,1,335.21,251Z" style="fill:#ccc"/><path d="M335.21,268.77H190a4.68,4.68,0,1,1,0-9.36H335.21a4.62,4.62,0,0,1,1.8.35,4.87,4.87,0,0,1,1.52,1,4.77,4.77,0,0,1,1,1.53,4.54,4.54,0,0,1,.36,1.79,4.69,4.69,0,0,1-1.38,3.31,4.73,4.73,0,0,1-1.52,1A4.81,4.81,0,0,1,335.21,268.77Z" style="fill:#ccc"/><path d="M231.51,233H148.06a4.68,4.68,0,1,1,0-9.36h83.45a4.68,4.68,0,1,1,0,9.36Z" style="fill:#909090"/><path d="M277.44,233.28h-23.7a4.69,4.69,0,1,1,0-9.37h23.7a4.69,4.69,0,0,1,0,9.37Z" style="fill:#ccc"/><path d="M171.77,268.77H148.06a4.68,4.68,0,1,1,0-9.36h23.71a4.6,4.6,0,0,1,1.79.35,4.63,4.63,0,0,1,2.55,2.54,4.72,4.72,0,0,1,.35,1.79,4.67,4.67,0,0,1-4.69,4.68Z" style="fill:#ccc"/><path d="M209.72,200.75a6.74,6.74,0,0,1-4.73-1.93l-31.37-30.93a6.42,6.42,0,0,1-1.44-2.13,6.58,6.58,0,0,1,0-5,6.42,6.42,0,0,1,1.44-2.13l31.24-30.8a6.91,6.91,0,0,1,9.75,9.79l-23.22,23.18a3.85,3.85,0,0,0,0,5.45l23.09,23.06a6.6,6.6,0,0,1,1.85,3.44,6.73,6.73,0,0,1-6.61,8Z" style="fill:#00ffa3"/><path d="M259.71,200.75a6.72,6.72,0,0,1-6.61-8,6.66,6.66,0,0,1,1.84-3.44L278,166.22a3.85,3.85,0,0,0,0-5.45l-23.21-23.18a6.89,6.89,0,0,1,0-9.76,6.94,6.94,0,0,1,9.74,0l31.25,30.8a6.74,6.74,0,0,1,1.44,2.13,6.58,6.58,0,0,1,0,5,6.74,6.74,0,0,1-1.44,2.13l-31.37,30.93A6.74,6.74,0,0,1,259.71,200.75Z" style="fill:#909090"/></g></svg>