<svg id="Layer_2" data-name="Layer 2" xmlns="http://www.w3.org/2000/svg" viewBox="0 0 285.75 163.94"><title>robot</title><rect x="120.87" y="67.73" width="50.64" height="14.77" style="fill:none;stroke:#5b5b5b;stroke-linecap:round;stroke-miterlimit:10;stroke-width:2px"/><path d="M90,112.69a48.11,48.11,0,0,0-68,0l-5.88-5.87a56.43,56.43,0,0,1,79.79,0Z" style="fill:#a0a0a0"/><path d="M90,112.69a48.11,48.11,0,0,0-68,0l-5.88-5.87a56.43,56.43,0,0,1,79.79,0Z" style="fill:none;stroke:#5b5b5b;stroke-miterlimit:10;stroke-width:2px"/><path d="M265,90.29a48.11,48.11,0,0,1-68,0l-5.87,5.88a56.43,56.43,0,0,0,79.79,0Z" style="fill:#a0a0a0"/><path d="M265,90.29a48.11,48.11,0,0,1-68,0l-5.87,5.88a56.43,56.43,0,0,0,79.79,0Z" style="fill:none;stroke:#5b5b5b;stroke-miterlimit:10;stroke-width:2px"/><circle cx="90.01" cy="58.79" r="7.71" style="fill:#a0a0a0;stroke:#5b5b5b;stroke-miterlimit:10;stroke-width:2px"/><circle cx="198.76" cy="58.79" r="7.71" style="fill:#a0a0a0;stroke:#5b5b5b;stroke-miterlimit:10;stroke-width:2px"/><path d="M113.22,127.33h65.93a0,0,0,0,1,0,0v9a11.6,11.6,0,0,1-11.6,11.6H124.83a11.6,11.6,0,0,1-11.6-11.6v-9A0,0,0,0,1,113.22,127.33Z" style="fill:#fff;stroke:#5b5b5b;stroke-miterlimit:10;stroke-width:2px"/><rect x="129.57" y="115.99" width="29.01" height="46.95" rx="14.51" style="fill:#a0a0a0;stroke:#5b5b5b;stroke-miterlimit:10;stroke-width:2px"/><path d="M198.76,55.38V72.74H90V55.38a54.38,54.38,0,1,1,108.75,0Z" style="fill:#fff;stroke:#5b5b5b;stroke-miterlimit:10;stroke-width:2px"/><path d="M72.08,78.28h144a0,0,0,0,1,0,0v25.85a35.34,35.34,0,0,1-35.34,35.34H107.42a35.34,35.34,0,0,1-35.34-35.34V78.28A0,0,0,0,1,72.08,78.28Z" style="fill:#fff;stroke:#5b5b5b;stroke-miterlimit:10;stroke-width:2px"/><path d="M215.09,79.33v25a34.32,34.32,0,0,1-34.46,34.16h-4.44a34.32,34.32,0,0,0,34.46-34.16v-25Z" style="fill:#8cd3f2"/><path d="M154.63,2V12.34a10.55,10.55,0,1,1-21.1,0V2.09A54.59,54.59,0,0,1,154.63,2Z" style="fill:#a0a0a0;stroke:#5b5b5b;stroke-miterlimit:10;stroke-width:2px"/><path d="M11.83,104.66A11.33,11.33,0,1,0,23.17,116,11.34,11.34,0,0,0,11.83,104.66Zm0,20.47A9.14,9.14,0,1,1,21,116,9.14,9.14,0,0,1,11.83,125.13Z" style="fill:#a0a0a0;stroke:#5b5b5b;stroke-miterlimit:10"/><path d="M273.91,74a11.34,11.34,0,1,0,11.34,11.34A11.35,11.35,0,0,0,273.91,74Zm0,20.48a9.14,9.14,0,1,1,9.15-9.14A9.13,9.13,0,0,1,273.91,94.5Z" style="fill:#a0a0a0;stroke:#5b5b5b;stroke-miterlimit:10"/><line x1="138.8" y1="147.9" x2="149.35" y2="147.9" style="fill:none;stroke:#5b5b5b;stroke-linecap:round;stroke-miterlimit:10;stroke-width:2px"/><line x1="138.8" y1="150.8" x2="149.35" y2="150.8" style="fill:none;stroke:#5b5b5b;stroke-linecap:round;stroke-miterlimit:10;stroke-width:2px"/><line x1="138.8" y1="153.97" x2="149.35" y2="153.97" style="fill:none;stroke:#5b5b5b;stroke-linecap:round;stroke-miterlimit:10;stroke-width:2px"/><circle cx="80.92" cy="89.18" r="3.83" style="fill:#e5e507;stroke:#5b5b5b;stroke-linecap:round;stroke-miterlimit:10;stroke-width:2px"/><circle cx="80.92" cy="105.32" r="3.83" style="fill:#20c40e;stroke:#5b5b5b;stroke-linecap:round;stroke-miterlimit:10;stroke-width:2px"/><path d="M154.27,56.61a9.86,9.86,0,0,1-5.76,9,9.63,9.63,0,0,1-4.12.91,9.88,9.88,0,0,1-9.89-9.89Z" style="fill:#a0a0a0;stroke:#5b5b5b;stroke-miterlimit:10"/><path d="M148.51,65.59a9.63,9.63,0,0,1-4.12.91,9.79,9.79,0,0,1-4.13-.9,4.22,4.22,0,0,1,8.25,0Z" style="fill:#a0a0a0;stroke:#5b5b5b;stroke-miterlimit:10"/><path d="M106.11,45.81c.88-3.41,3.29-5.91,6.13-6.36,3.4-.53,6.84,2,8.09,6.07" style="fill:none;stroke:#5b5b5b;stroke-miterlimit:10;stroke-width:2px"/><path d="M168.78,45.81c.88-3.41,3.29-5.91,6.13-6.36,3.4-.53,6.84,2,8.09,6.07" style="fill:none;stroke:#5b5b5b;stroke-miterlimit:10;stroke-width:2px"/></svg>